<svg width="162" height="130" viewBox="0 0 162 130" fill="none" xmlns="http://www.w3.org/2000/svg">
<path d="M95.7273 8.90909L80.2727 102H69.3636L30.8182 28.9091H29.9091L17.7273 102H6.45455L21.9091 8.90909H32.8182L71.5455 82.1818H72.4545L84.6364 8.90909H95.7273Z" fill="#0F1926" fill-opacity="0.91"/>
<path d="M5.54219 126.096C4.58219 126.096 3.92619 125.872 3.57419 125.424C3.22219 124.944 3.04619 124.368 3.04619 123.696C3.04619 122.8 3.23819 121.84 3.62219 120.816C4.03819 119.792 4.37419 118.992 4.63019 118.416C4.21419 118.864 3.81419 119.296 3.43019 119.712C3.04619 120.128 2.77419 120.432 2.61419 120.624C2.51819 120.752 2.43819 120.816 2.37419 120.816C2.31019 120.816 2.27819 120.736 2.27819 120.576C2.27819 120.32 2.35819 120.08 2.51819 119.856C2.96619 119.28 3.47819 118.672 4.05419 118.032C4.63019 117.392 5.19019 116.72 5.73419 116.016C6.37419 114.832 7.07819 113.456 7.84619 111.888C8.64619 110.288 9.46219 108.656 10.2942 106.992C11.1582 105.296 11.9902 103.744 12.7902 102.336C13.6222 100.896 14.3582 99.744 14.9982 98.88C15.5422 98.656 16.0542 98.368 16.5342 98.016C17.0462 97.664 17.5422 97.344 18.0222 97.056C18.5342 96.736 19.0622 96.576 19.6062 96.576C19.9582 96.576 20.2142 96.672 20.3742 96.864C20.5662 97.056 20.6942 97.28 20.7582 97.536C20.7902 97.632 20.8062 97.808 20.8062 98.064C20.8062 98.8 20.5502 99.696 20.0382 100.752C19.5582 101.808 18.9822 102.848 18.3102 103.872C17.6702 104.864 17.1102 105.68 16.6302 106.32C15.3502 108.112 14.0382 109.744 12.6942 111.216C11.3502 112.656 10.1342 113.872 9.04619 114.864C7.99019 115.824 7.22219 116.528 6.74219 116.976C6.51819 117.392 6.24619 117.952 5.92619 118.656C5.63819 119.328 5.38219 120.048 5.15819 120.816C4.93419 121.552 4.82219 122.24 4.82219 122.88C4.82219 123.424 4.95019 123.888 5.20619 124.272C5.46219 124.624 5.89419 124.8 6.50219 124.8C6.59819 124.8 6.69419 124.8 6.79019 124.8C6.88619 124.8 6.99819 124.784 7.12619 124.752C7.67019 124.656 8.26219 124.352 8.90219 123.84C9.54219 123.328 10.1822 122.736 10.8222 122.064C11.4622 121.392 12.0382 120.752 12.5502 120.144C12.7742 119.888 12.9822 119.648 13.1742 119.424C13.3662 119.168 13.4942 118.992 13.5582 118.896C13.7822 119.12 13.7662 119.408 13.5102 119.76C13.2862 120.08 13.0942 120.352 12.9342 120.576C12.7102 120.864 12.3902 121.264 11.9742 121.776C11.5582 122.256 11.0782 122.784 10.5342 123.36C9.92619 123.968 9.17419 124.576 8.27819 125.184C7.38219 125.792 6.47019 126.096 5.54219 126.096ZM7.55819 115.056C8.55019 114.224 9.79819 113.04 11.3022 111.504C12.8382 109.936 14.3422 108.048 15.8142 105.84C15.9742 105.584 16.2302 105.152 16.5822 104.544C16.9662 103.936 17.3502 103.248 17.7342 102.48C18.1502 101.68 18.5022 100.912 18.7902 100.176C19.0782 99.408 19.2222 98.752 19.2222 98.208C19.2222 97.696 19.0782 97.44 18.7902 97.44C18.4382 97.44 17.9742 97.744 17.3982 98.352C16.7262 99.056 15.9582 100.096 15.0942 101.472C14.2622 102.816 13.3822 104.32 12.4542 105.984C11.5262 107.648 10.6302 109.28 9.76619 110.88C8.93419 112.48 8.19819 113.872 7.55819 115.056ZM15.3758 126.384C14.0638 126.384 13.1518 126.128 12.6398 125.616C12.1278 125.104 11.8718 124.48 11.8718 123.744C11.8718 122.816 12.1118 121.824 12.5918 120.768C13.1038 119.712 13.5838 118.816 14.0318 118.08C14.5438 117.312 15.2318 116.512 16.0958 115.68C16.9598 114.848 17.9038 114.144 18.9278 113.568C19.9518 112.992 20.9438 112.704 21.9038 112.704C22.7358 112.704 23.3118 112.912 23.6318 113.328C23.9518 113.712 24.1118 114.176 24.1118 114.72C24.1118 115.712 23.8078 116.528 23.1998 117.168C22.6238 117.808 21.9038 118.336 21.0398 118.752C20.1758 119.136 19.3438 119.456 18.5438 119.712C18.0638 119.84 17.5038 119.968 16.8638 120.096C16.2238 120.224 15.6158 120.288 15.0398 120.288C14.8158 120.864 14.6398 121.424 14.5118 121.968C14.3838 122.512 14.3198 123.008 14.3198 123.456C14.3198 124 14.4478 124.448 14.7038 124.8C14.9918 125.152 15.4558 125.328 16.0958 125.328C16.3518 125.328 16.6558 125.296 17.0078 125.232C17.3598 125.168 17.7438 125.072 18.1598 124.944C19.1198 124.624 20.0638 124.112 20.9918 123.408C21.9198 122.704 22.7678 121.952 23.5358 121.152C24.3358 120.32 24.9438 119.632 25.3598 119.088C25.4558 119.184 25.5038 119.296 25.5038 119.424C25.5038 119.584 25.3918 119.84 25.1678 120.192C24.5278 121.088 23.6958 122.016 22.6718 122.976C21.6478 123.936 20.5118 124.752 19.2638 125.424C18.0158 126.064 16.7198 126.384 15.3758 126.384ZM15.4238 119.328C15.8398 119.36 16.3038 119.36 16.8158 119.328C17.3598 119.264 17.8878 119.152 18.3998 118.992C19.7118 118.608 20.6558 118 21.2318 117.168C21.8398 116.304 22.1438 115.536 22.1438 114.864C22.1438 114.48 22.0638 114.16 21.9038 113.904C21.7438 113.648 21.4878 113.52 21.1358 113.52C20.2078 113.52 19.3758 113.872 18.6398 114.576C17.9038 115.248 17.2638 116.032 16.7198 116.928C16.1758 117.824 15.7438 118.624 15.4238 119.328ZM31.1209 126.144C30.8009 126.144 30.5289 126.08 30.3049 125.952C30.0809 125.824 29.9689 125.584 29.9689 125.232C29.9689 124.784 30.0809 124.272 30.3049 123.696C30.5289 123.12 30.7849 122.56 31.0729 122.016C31.3609 121.44 31.6169 120.976 31.8409 120.624C30.7209 121.808 29.5529 122.928 28.3369 123.984C27.7289 124.496 27.0569 124.976 26.3209 125.424C25.5849 125.872 24.8009 126.096 23.9689 126.096C23.6489 126.096 23.4249 126 23.2969 125.808C23.1689 125.584 23.1049 125.328 23.1049 125.04C23.1049 124.88 23.1209 124.768 23.1529 124.704C23.3129 123.456 23.7129 122.16 24.3529 120.816C24.9929 119.472 25.7769 118.208 26.7049 117.024C27.6329 115.84 28.5769 114.88 29.5369 114.144C30.6249 113.312 31.8249 112.896 33.1369 112.896H38.6569C38.8169 112.896 38.8969 112.96 38.8969 113.088C38.8969 113.344 38.7529 113.472 38.4649 113.472C38.1449 113.472 37.8249 113.68 37.5049 114.096C37.1849 114.48 36.9449 114.8 36.7849 115.056C36.5609 115.408 36.2089 116 35.7289 116.832C35.2489 117.664 34.7529 118.576 34.2409 119.568C33.7609 120.528 33.3449 121.424 32.9929 122.256C32.6409 123.088 32.4649 123.696 32.4649 124.08C32.4649 124.528 32.6889 124.752 33.1369 124.752C33.6169 124.752 34.1609 124.528 34.7689 124.08C35.3769 123.632 35.9849 123.088 36.5929 122.448C37.2329 121.776 37.8089 121.12 38.3209 120.48C38.8649 119.808 39.2969 119.28 39.6169 118.896C39.8089 119.088 39.7929 119.36 39.5689 119.712C39.3769 120.032 39.2009 120.288 39.0409 120.48C38.4009 121.312 37.6649 122.176 36.8329 123.072C36.0009 123.936 35.0889 124.672 34.0969 125.28C33.1369 125.856 32.1449 126.144 31.1209 126.144ZM25.9369 124.464C26.3209 124.464 26.8489 124.192 27.5209 123.648C28.2249 123.072 28.9769 122.368 29.7769 121.536C30.5769 120.672 31.3289 119.776 32.0329 118.848C32.7369 117.888 33.3129 117.024 33.7609 116.256C34.2409 115.456 34.4809 114.848 34.4809 114.432C34.4809 114.08 34.3689 113.84 34.1449 113.712C33.9529 113.584 33.6969 113.52 33.3769 113.52C32.8649 113.52 32.3049 113.712 31.6969 114.096C31.1209 114.448 30.6569 114.8 30.3049 115.152C29.9209 115.504 29.4569 116.064 28.9129 116.832C28.4009 117.568 27.8889 118.384 27.3769 119.28C26.8649 120.176 26.4329 121.04 26.0809 121.872C25.7289 122.704 25.5529 123.376 25.5529 123.888C25.5529 124.272 25.6809 124.464 25.9369 124.464ZM38.9903 126.672C38.8623 126.672 38.8623 126.544 38.9903 126.288C39.1503 126 39.2943 125.68 39.4223 125.328C39.5823 124.976 39.7423 124.592 39.9023 124.176C40.2223 123.408 40.5743 122.544 40.9583 121.584C41.3423 120.624 41.7103 119.696 42.0623 118.8C42.4143 117.872 42.7183 117.088 42.9743 116.448C43.2623 115.776 43.4543 115.344 43.5503 115.152C43.1023 115.632 42.5583 116.24 41.9183 116.976C41.3103 117.68 40.7343 118.368 40.1903 119.04C39.6463 119.712 39.2303 120.24 38.9423 120.624C38.8463 120.752 38.7663 120.816 38.7023 120.816C38.6383 120.816 38.6063 120.736 38.6063 120.576C38.6063 120.32 38.6863 120.08 38.8463 119.856C39.4543 119.088 40.1263 118.224 40.8623 117.264C41.6303 116.304 42.3183 115.424 42.9263 114.624C43.5343 113.792 43.9183 113.248 44.0783 112.992C44.4303 112.928 44.9423 112.832 45.6143 112.704C46.3183 112.576 46.7983 112.4 47.0543 112.176C47.1503 112.08 47.2463 112.032 47.3423 112.032C47.4063 112.032 47.4383 112.096 47.4383 112.224C47.4703 112.32 47.4383 112.432 47.3423 112.56C47.1503 112.752 46.8623 113.168 46.4783 113.808C46.1263 114.448 45.7263 115.184 45.2783 116.016C44.8303 116.848 44.3983 117.648 43.9823 118.416C44.3023 117.936 44.7183 117.376 45.2303 116.736C45.7743 116.064 46.3663 115.424 47.0063 114.816C47.6463 114.176 48.2863 113.648 48.9263 113.232C49.5983 112.816 50.2223 112.608 50.7983 112.608C51.2143 112.608 51.5663 112.704 51.8543 112.896C52.1423 113.056 52.3663 113.36 52.5263 113.808C52.6223 114.032 52.6703 114.288 52.6703 114.576C52.6703 115.12 52.5263 115.648 52.2383 116.16C51.9823 116.64 51.7903 117.008 51.6623 117.264C51.6303 117.36 51.5183 117.456 51.3263 117.552C51.1343 117.616 51.0543 117.584 51.0863 117.456C51.1183 117.296 51.1343 117.136 51.1343 116.976C51.1663 116.816 51.1823 116.64 51.1823 116.448C51.1823 115.904 51.0703 115.408 50.8463 114.96C50.6543 114.512 50.2863 114.288 49.7423 114.288C49.2303 114.288 48.6063 114.608 47.8703 115.248C47.1343 115.888 46.3983 116.624 45.6623 117.456C44.7343 118.544 43.9983 119.584 43.4543 120.576C42.9103 121.536 42.4623 122.48 42.1103 123.408C41.9183 123.92 41.7263 124.432 41.5343 124.944C41.3423 125.424 41.1983 125.808 41.1023 126.096C40.6863 126.128 40.2703 126.224 39.8543 126.384C39.4383 126.576 39.1503 126.672 38.9903 126.672ZM52.0684 126.72C51.9404 126.72 51.9404 126.576 52.0684 126.288C52.2284 126 52.3724 125.68 52.5004 125.328C52.6604 124.976 52.8204 124.592 52.9804 124.176C53.3004 123.408 53.6524 122.544 54.0364 121.584C54.4204 120.624 54.7884 119.696 55.1404 118.8C55.4924 117.872 55.7964 117.088 56.0524 116.448C56.3404 115.776 56.5324 115.344 56.6284 115.152C56.1804 115.632 55.6364 116.24 54.9964 116.976C54.3884 117.68 53.8124 118.368 53.2684 119.04C52.7244 119.712 52.3084 120.24 52.0204 120.624C51.9244 120.752 51.8444 120.816 51.7804 120.816C51.7164 120.816 51.6844 120.736 51.6844 120.576C51.6844 120.32 51.7644 120.08 51.9244 119.856C52.5324 119.088 53.2044 118.224 53.9404 117.264C54.7084 116.304 55.3964 115.424 56.0044 114.624C56.6124 113.792 56.9964 113.248 57.1564 112.992C57.5084 112.928 58.0204 112.832 58.6924 112.704C59.3964 112.576 59.8764 112.4 60.1324 112.176C60.2284 112.08 60.3244 112.032 60.4204 112.032C60.4844 112.032 60.5164 112.096 60.5164 112.224C60.5484 112.32 60.5164 112.432 60.4204 112.56C60.2284 112.784 59.8924 113.312 59.4124 114.144C58.9644 114.944 58.4684 115.84 57.9244 116.832C57.4124 117.824 56.9324 118.72 56.4844 119.52C56.8684 119.008 57.2844 118.512 57.7324 118.032C58.1804 117.552 58.6124 117.088 59.0284 116.64C59.4124 116.256 59.9404 115.776 60.6124 115.2C61.2844 114.624 61.9884 114.096 62.7244 113.616C63.4604 113.136 64.1004 112.864 64.6444 112.8C64.7724 112.768 64.8844 112.752 64.9804 112.752C65.1084 112.752 65.2044 112.752 65.2684 112.752C65.9724 112.752 66.3244 113.008 66.3244 113.52C66.3244 113.904 66.1164 114.416 65.7004 115.056C65.4764 115.408 65.1244 116 64.6444 116.832C64.1964 117.632 63.7324 118.512 63.2524 119.472C62.8044 120.4 62.4044 121.28 62.0524 122.112C61.7324 122.912 61.5724 123.504 61.5724 123.888C61.5724 124.336 61.7964 124.56 62.2444 124.56C62.7884 124.56 63.3804 124.288 64.0204 123.744C64.6924 123.2 65.4124 122.512 66.1804 121.68C66.9484 120.816 67.7164 119.904 68.4844 118.944C68.5484 119.008 68.5804 119.12 68.5804 119.28C68.5804 119.504 68.5004 119.728 68.3404 119.952C68.2124 120.144 68.0844 120.32 67.9564 120.48C67.6364 120.896 67.2044 121.424 66.6604 122.064C66.1484 122.672 65.6204 123.28 65.0764 123.888C64.5324 124.464 64.0364 124.928 63.5884 125.28C63.2684 125.504 62.8524 125.744 62.3404 126C61.8284 126.256 61.3164 126.384 60.8044 126.384C60.2284 126.384 59.8284 126.24 59.6044 125.952C59.3804 125.632 59.2684 125.248 59.2684 124.8C59.2684 124.288 59.3644 123.744 59.5564 123.168C59.7484 122.592 59.9564 122.048 60.1804 121.536C60.4364 120.992 60.6284 120.592 60.7564 120.336C61.3324 119.216 61.8604 118.16 62.3404 117.168C62.8204 116.176 63.1564 115.472 63.3484 115.056C63.4444 114.864 63.4924 114.704 63.4924 114.576C63.4924 114.352 63.3164 114.336 62.9644 114.528C62.6124 114.72 62.1804 115.008 61.6684 115.392C61.1884 115.776 60.7404 116.16 60.3244 116.544C59.9084 116.896 59.6364 117.136 59.5084 117.264C58.3244 118.512 57.2844 119.904 56.3884 121.44C55.5244 122.944 54.7884 124.496 54.1804 126.096C53.7644 126.128 53.3484 126.24 52.9324 126.432C52.5164 126.624 52.2284 126.72 52.0684 126.72ZM71.5602 126.288C71.1122 126.288 70.7282 126.128 70.4082 125.808C70.0882 125.488 69.9282 124.928 69.9282 124.128C69.9282 123.424 69.9762 122.592 70.0722 121.632C70.2002 120.672 70.3762 119.696 70.6002 118.704C70.8242 117.68 71.0802 116.784 71.3682 116.016C70.8242 116.816 70.2162 117.648 69.5442 118.512C68.8722 119.344 68.3122 120.048 67.8642 120.624C67.7682 120.752 67.6882 120.816 67.6242 120.816C67.5602 120.816 67.5282 120.736 67.5282 120.576C67.5282 120.32 67.6082 120.08 67.7682 119.856C68.4402 118.928 69.1922 117.872 70.0242 116.688C70.8882 115.504 71.6242 114.432 72.2322 113.472C72.5842 113.408 73.0002 113.312 73.4802 113.184C73.9922 113.056 74.3602 112.88 74.5842 112.656C74.7442 112.56 74.8402 112.512 74.8722 112.512C74.9682 112.512 75.0162 112.576 75.0162 112.704C75.0162 112.8 74.9682 112.912 74.8722 113.04C74.5842 113.456 74.2642 114.112 73.9122 115.008C73.5602 115.872 73.2242 116.848 72.9042 117.936C72.5842 118.992 72.3122 120.032 72.0882 121.056C71.8962 122.08 71.8002 122.928 71.8002 123.6C71.8002 124.112 71.8802 124.464 72.0402 124.656C72.2322 124.848 72.4402 124.944 72.6642 124.944C73.1122 124.944 73.5762 124.736 74.0562 124.32C74.5682 123.904 75.0642 123.392 75.5442 122.784C76.0562 122.176 76.5042 121.584 76.8882 121.008C77.2722 120.432 77.5602 119.984 77.7522 119.664C78.3922 118.64 79.0002 117.536 79.5762 116.352C80.1842 115.136 80.6962 114.176 81.1122 113.472C81.4642 113.408 81.8802 113.312 82.3602 113.184C82.8722 113.056 83.2562 112.88 83.5122 112.656C83.6082 112.56 83.6882 112.512 83.7522 112.512C83.8482 112.512 83.8962 112.576 83.8962 112.704C83.9282 112.8 83.8962 112.912 83.8002 113.04C83.5122 113.456 83.2082 114.096 82.8882 114.96C82.5682 115.824 82.2482 116.784 81.9282 117.84C81.6402 118.864 81.4002 119.888 81.2082 120.912C81.0162 121.904 80.9202 122.752 80.9202 123.456C80.9202 124.416 81.2722 124.896 81.9762 124.896C82.4562 124.896 82.9842 124.72 83.5602 124.368C84.1682 124.016 84.6642 123.648 85.0482 123.264C86.1362 122.144 87.0482 121.04 87.7842 119.952C88.5202 118.864 89.1442 117.616 89.6562 116.208C89.8482 115.728 89.9762 115.312 90.0402 114.96C90.1042 114.576 90.1362 114.224 90.1362 113.904C90.1362 113.456 90.0562 113.104 89.8962 112.848C89.7682 112.56 89.6242 112.4 89.4642 112.368C89.3042 112.304 89.2242 112.224 89.2242 112.128C89.2242 112.064 89.3042 112 89.4642 111.936C89.6242 111.84 89.8002 111.808 89.9922 111.84C90.5042 111.968 90.9362 112.208 91.2882 112.56C91.6722 112.88 91.8642 113.36 91.8642 114C91.8642 114.512 91.7522 115.056 91.5282 115.632C91.0802 116.816 90.4242 118.048 89.5602 119.328C88.7282 120.576 87.7842 121.744 86.7282 122.832C85.6722 123.92 84.5682 124.8 83.4162 125.472C83.0002 125.696 82.5682 125.888 82.1202 126.048C81.6722 126.208 81.2402 126.288 80.8242 126.288C80.3122 126.288 79.8642 126.128 79.4802 125.808C79.1282 125.488 78.9522 124.928 78.9522 124.128C78.9522 123.296 79.0322 122.304 79.1922 121.152C79.3842 120 79.6242 118.88 79.9122 117.792C79.6882 118.144 79.4642 118.528 79.2402 118.944C79.0482 119.328 78.8242 119.728 78.5682 120.144C77.7682 121.296 76.9362 122.384 76.0722 123.408C75.2402 124.432 74.5202 125.12 73.9122 125.472C73.5282 125.696 73.1282 125.888 72.7122 126.048C72.2962 126.208 71.9122 126.288 71.5602 126.288ZM101.608 107.664C101.16 107.664 100.84 107.52 100.648 107.232C100.52 107.072 100.456 106.864 100.456 106.608C100.456 106.096 100.696 105.68 101.176 105.36C101.528 105.168 101.848 105.072 102.136 105.072C102.616 105.072 102.952 105.216 103.144 105.504C103.272 105.664 103.336 105.872 103.336 106.128C103.336 106.64 103.08 107.056 102.568 107.376C102.28 107.568 101.96 107.664 101.608 107.664ZM93.2562 126.144C92.9362 126.144 92.6642 126.08 92.4402 125.952C92.2482 125.824 92.1522 125.584 92.1522 125.232C92.1522 124.784 92.2642 124.256 92.4882 123.648C92.7442 123.04 93.0162 122.432 93.3042 121.824C93.6242 121.216 93.8642 120.72 94.0242 120.336C94.2482 119.888 94.5202 119.312 94.8402 118.608C95.1922 117.872 95.5122 117.184 95.8002 116.544C96.1202 115.872 96.3442 115.408 96.4722 115.152C96.0242 115.632 95.4802 116.24 94.8402 116.976C94.2322 117.68 93.6562 118.368 93.1122 119.04C92.5682 119.712 92.1522 120.24 91.8642 120.624C91.7682 120.752 91.6882 120.816 91.6242 120.816C91.5602 120.816 91.5282 120.736 91.5282 120.576C91.5282 120.32 91.6082 120.08 91.7682 119.856C92.3762 119.088 93.0482 118.224 93.7842 117.264C94.5522 116.304 95.2402 115.424 95.8482 114.624C96.4562 113.792 96.8402 113.248 97.0002 112.992C97.3522 112.928 97.8642 112.832 98.5362 112.704C99.2402 112.576 99.7202 112.4 99.9762 112.176C100.072 112.08 100.168 112.032 100.264 112.032C100.328 112.032 100.36 112.096 100.36 112.224C100.392 112.32 100.36 112.432 100.264 112.56C100.072 112.784 99.7362 113.328 99.2562 114.192C98.7762 115.056 98.2642 116.016 97.7202 117.072C97.2082 118.096 96.7282 119.024 96.2802 119.856C95.8322 120.72 95.4482 121.552 95.1282 122.352C94.8082 123.152 94.6482 123.728 94.6482 124.08C94.6482 124.528 94.8722 124.752 95.3202 124.752C95.7362 124.752 96.2642 124.496 96.9042 123.984C97.5762 123.472 98.2482 122.864 98.9202 122.16C99.5922 121.424 100.184 120.752 100.696 120.144C100.856 119.952 101.048 119.728 101.272 119.472C101.528 119.184 101.688 119.008 101.752 118.944C101.816 119.008 101.848 119.12 101.848 119.28C101.816 119.504 101.736 119.728 101.608 119.952C101.48 120.144 101.352 120.32 101.224 120.48C100.552 121.312 99.8162 122.176 99.0162 123.072C98.2162 123.936 97.3362 124.672 96.3762 125.28C95.4162 125.856 94.3762 126.144 93.2562 126.144ZM102.779 126.144C102.459 126.144 102.187 126.08 101.963 125.952C101.739 125.824 101.627 125.584 101.627 125.232C101.627 124.784 101.739 124.256 101.963 123.648C102.219 123.04 102.491 122.432 102.779 121.824C103.067 121.216 103.307 120.72 103.499 120.336C103.659 120.048 103.867 119.6 104.123 118.992C104.411 118.352 104.699 117.696 104.987 117.024C105.307 116.32 105.563 115.728 105.755 115.248C105.979 114.768 106.091 114.528 106.091 114.528C105.803 114.848 105.419 115.296 104.939 115.872C104.491 116.448 103.995 117.056 103.451 117.696C102.939 118.304 102.459 118.88 102.011 119.424C101.595 119.968 101.291 120.368 101.099 120.624C101.003 120.752 100.923 120.816 100.859 120.816C100.795 120.816 100.763 120.736 100.763 120.576C100.763 120.32 100.843 120.08 101.003 119.856C101.387 119.376 101.851 118.8 102.395 118.128C102.939 117.424 103.483 116.72 104.027 116.016C104.603 115.312 105.099 114.688 105.515 114.144C105.259 114.144 104.923 114.16 104.507 114.192C104.123 114.224 103.771 114.272 103.451 114.336C103.131 114.368 102.955 114.384 102.923 114.384C102.763 114.384 102.779 114.256 102.971 114C103.163 113.744 103.419 113.488 103.739 113.232C104.059 112.976 104.299 112.848 104.459 112.848C104.491 112.848 104.747 112.864 105.227 112.896C105.707 112.896 106.059 112.896 106.283 112.896C106.923 112.032 107.547 111.04 108.155 109.92C108.795 108.8 109.419 107.568 110.027 106.224C110.283 106.192 110.715 106.016 111.323 105.696C111.963 105.344 112.459 104.992 112.811 104.64C112.971 104.48 113.099 104.4 113.195 104.4C113.387 104.4 113.387 104.528 113.195 104.784C112.971 105.04 112.587 105.584 112.043 106.416C111.499 107.216 110.891 108.192 110.219 109.344C109.547 110.464 108.907 111.648 108.299 112.896H112.187C112.539 112.896 112.715 112.944 112.715 113.04C112.715 113.168 112.475 113.296 111.995 113.424C111.451 113.584 110.875 113.68 110.267 113.712C109.691 113.744 109.147 113.808 108.635 113.904C108.155 114 107.803 114.208 107.579 114.528C107.387 114.752 107.115 115.232 106.763 115.968C106.411 116.704 106.027 117.552 105.611 118.512C105.227 119.44 104.891 120.384 104.603 121.344C104.315 122.272 104.139 123.056 104.075 123.696V123.888C104.075 124.144 104.155 124.352 104.315 124.512C104.475 124.672 104.635 124.752 104.795 124.752C105.211 124.752 105.739 124.496 106.379 123.984C107.051 123.472 107.739 122.864 108.443 122.16C109.147 121.424 109.755 120.752 110.267 120.144C110.491 119.888 110.683 119.648 110.843 119.424C111.035 119.2 111.147 119.056 111.179 118.992C111.243 119.12 111.275 119.216 111.275 119.28C111.275 119.472 111.211 119.68 111.083 119.904C110.987 120.128 110.875 120.32 110.747 120.48C110.139 121.28 109.403 122.128 108.539 123.024C107.675 123.888 106.747 124.624 105.755 125.232C104.795 125.84 103.803 126.144 102.779 126.144ZM117.478 126.288C116.998 126.288 116.566 126.192 116.182 126C115.83 125.808 115.654 125.456 115.654 124.944C115.654 124.656 115.718 124.336 115.846 123.984C116.134 123.248 116.518 122.352 116.998 121.296C117.51 120.24 118.022 119.216 118.534 118.224C119.046 117.2 119.446 116.368 119.734 115.728C119.926 115.344 120.022 115.072 120.022 114.912C120.022 114.624 119.862 114.56 119.542 114.72C119.222 114.88 118.87 115.104 118.486 115.392C118.102 115.68 117.814 115.904 117.622 116.064C116.79 116.832 115.91 117.744 114.982 118.8C114.086 119.824 113.254 120.912 112.486 122.064C111.75 123.184 111.174 124.304 110.758 125.424C110.726 125.616 110.518 125.776 110.134 125.904C109.75 126.032 109.398 126.096 109.078 126.096C108.566 126.096 108.374 125.936 108.502 125.616C109.238 123.952 109.99 122.112 110.758 120.096C111.558 118.08 112.454 116.016 113.446 113.904C114.182 112.304 114.998 110.656 115.894 108.96C116.822 107.264 117.846 105.648 118.966 104.112C120.086 102.544 121.318 101.168 122.662 99.984C123.846 98.96 125.142 98.128 126.55 97.488C127.99 96.816 129.542 96.48 131.206 96.48C131.942 96.48 132.582 96.64 133.126 96.96C133.67 97.248 133.974 97.776 134.038 98.544V98.976C134.038 99.424 133.99 99.872 133.894 100.32C133.862 100.448 133.734 100.512 133.51 100.512C133.414 100.512 133.382 100.496 133.414 100.464C133.542 99.632 133.318 99.04 132.742 98.688C132.198 98.336 131.494 98.16 130.63 98.16C129.062 98.16 127.622 98.448 126.31 99.024C124.998 99.6 123.782 100.368 122.662 101.328C120.934 102.832 119.43 104.752 118.15 107.088C116.87 109.424 115.766 111.808 114.838 114.24C114.39 115.424 113.942 116.608 113.494 117.792C113.078 118.976 112.678 120.08 112.294 121.104C113.734 119.184 115.11 117.536 116.422 116.16C117.766 114.784 118.934 113.808 119.926 113.232C120.726 112.784 121.446 112.56 122.086 112.56C122.694 112.56 122.998 112.816 122.998 113.328C122.998 113.776 122.774 114.352 122.326 115.056C122.102 115.408 121.75 116 121.27 116.832C120.822 117.664 120.342 118.576 119.83 119.568C119.35 120.528 118.934 121.424 118.582 122.256C118.23 123.088 118.054 123.696 118.054 124.08C118.054 124.592 118.278 124.848 118.726 124.848C118.982 124.848 119.27 124.768 119.59 124.608C119.942 124.448 120.198 124.304 120.358 124.176C121.222 123.536 122.07 122.752 122.902 121.824C123.734 120.896 124.438 120.08 125.014 119.376C125.046 119.344 125.062 119.392 125.062 119.52C125.062 119.648 125.03 119.84 124.966 120.096C124.934 120.32 124.838 120.512 124.678 120.672C124.326 121.152 123.958 121.616 123.574 122.064C123.222 122.48 122.87 122.896 122.518 123.312C121.91 124.016 121.174 124.688 120.31 125.328C119.478 125.968 118.534 126.288 117.478 126.288ZM124.772 126.72C124.644 126.72 124.644 126.576 124.772 126.288C124.932 126 125.076 125.68 125.204 125.328C125.364 124.976 125.524 124.592 125.684 124.176C126.004 123.408 126.356 122.544 126.74 121.584C127.124 120.624 127.492 119.696 127.844 118.8C128.196 117.872 128.5 117.088 128.756 116.448C129.044 115.776 129.236 115.344 129.332 115.152C128.884 115.632 128.34 116.24 127.7 116.976C127.092 117.68 126.516 118.368 125.972 119.04C125.428 119.712 125.012 120.24 124.724 120.624C124.628 120.752 124.548 120.816 124.484 120.816C124.42 120.816 124.388 120.736 124.388 120.576C124.388 120.32 124.468 120.08 124.628 119.856C125.236 119.088 125.908 118.224 126.644 117.264C127.412 116.304 128.1 115.424 128.708 114.624C129.316 113.792 129.7 113.248 129.86 112.992C130.212 112.928 130.724 112.832 131.396 112.704C132.1 112.576 132.58 112.4 132.836 112.176C132.932 112.08 133.028 112.032 133.124 112.032C133.188 112.032 133.22 112.096 133.22 112.224C133.252 112.32 133.22 112.432 133.124 112.56C132.932 112.784 132.596 113.312 132.116 114.144C131.668 114.944 131.172 115.84 130.628 116.832C130.116 117.824 129.636 118.72 129.188 119.52C129.572 119.008 129.988 118.512 130.436 118.032C130.884 117.552 131.316 117.088 131.732 116.64C132.116 116.256 132.644 115.776 133.316 115.2C133.988 114.624 134.692 114.096 135.428 113.616C136.164 113.136 136.804 112.864 137.348 112.8C137.476 112.768 137.588 112.752 137.684 112.752C137.812 112.752 137.908 112.752 137.972 112.752C138.676 112.752 139.028 113.008 139.028 113.52C139.028 113.904 138.82 114.416 138.404 115.056C138.18 115.408 137.828 116 137.348 116.832C136.9 117.632 136.436 118.512 135.956 119.472C135.508 120.4 135.108 121.28 134.756 122.112C134.436 122.912 134.276 123.504 134.276 123.888C134.276 124.336 134.5 124.56 134.948 124.56C135.492 124.56 136.084 124.288 136.724 123.744C137.396 123.2 138.116 122.512 138.884 121.68C139.652 120.816 140.42 119.904 141.188 118.944C141.252 119.008 141.284 119.12 141.284 119.28C141.284 119.504 141.204 119.728 141.044 119.952C140.916 120.144 140.788 120.32 140.66 120.48C140.34 120.896 139.908 121.424 139.364 122.064C138.852 122.672 138.324 123.28 137.78 123.888C137.236 124.464 136.74 124.928 136.292 125.28C135.972 125.504 135.556 125.744 135.044 126C134.532 126.256 134.02 126.384 133.508 126.384C132.932 126.384 132.532 126.24 132.308 125.952C132.084 125.632 131.972 125.248 131.972 124.8C131.972 124.288 132.068 123.744 132.26 123.168C132.452 122.592 132.66 122.048 132.884 121.536C133.14 120.992 133.332 120.592 133.46 120.336C134.036 119.216 134.564 118.16 135.044 117.168C135.524 116.176 135.86 115.472 136.052 115.056C136.148 114.864 136.196 114.704 136.196 114.576C136.196 114.352 136.02 114.336 135.668 114.528C135.316 114.72 134.884 115.008 134.372 115.392C133.892 115.776 133.444 116.16 133.028 116.544C132.612 116.896 132.34 117.136 132.212 117.264C131.028 118.512 129.988 119.904 129.092 121.44C128.228 122.944 127.492 124.496 126.884 126.096C126.468 126.128 126.052 126.24 125.636 126.432C125.22 126.624 124.932 126.72 124.772 126.72ZM148.919 126.24C148.119 126.24 147.511 125.968 147.095 125.424C146.839 125.04 146.583 124.464 146.327 123.696C146.071 122.928 145.847 122.128 145.655 121.296C145.463 120.464 145.303 119.792 145.175 119.28C144.279 120.432 143.479 121.584 142.775 122.736C142.103 123.888 141.655 124.784 141.431 125.424C141.367 125.616 141.143 125.776 140.759 125.904C140.407 126.032 140.055 126.096 139.703 126.096C139.191 126.096 138.999 125.936 139.127 125.616C140.119 123.408 141.063 121.28 141.959 119.232C142.855 117.184 143.799 115.12 144.791 113.04C145.815 110.96 146.967 108.8 148.247 106.56C149.143 104.928 150.215 103.36 151.463 101.856C152.743 100.32 154.103 99.072 155.543 98.112C156.983 97.12 158.439 96.624 159.911 96.624C160.391 96.624 160.839 96.752 161.255 97.008C161.671 97.264 161.879 97.664 161.879 98.208V99.6C161.879 99.728 161.783 99.792 161.591 99.792C161.495 99.792 161.447 99.76 161.447 99.696C161.447 99.184 161.223 98.848 160.775 98.688C160.327 98.496 159.895 98.4 159.479 98.4C158.359 98.4 157.223 98.624 156.071 99.072C154.791 99.584 153.719 100.352 152.855 101.376C151.991 102.4 151.191 103.488 150.455 104.64C149.495 106.112 148.551 107.84 147.623 109.824C146.695 111.776 145.831 113.744 145.031 115.728C144.263 117.712 143.575 119.504 142.967 121.104C143.319 120.656 143.671 120.208 144.023 119.76C144.375 119.312 144.711 118.896 145.031 118.512C145.031 118.448 145.015 118.384 144.983 118.32C144.983 118.256 144.983 118.192 144.983 118.128C144.983 117.904 145.031 117.712 145.127 117.552C145.223 117.392 145.351 117.2 145.511 116.976C145.735 116.656 145.943 116.416 146.135 116.256C146.327 116.064 146.535 115.824 146.759 115.536L146.903 116.352C148.311 114.912 149.543 113.872 150.599 113.232C151.335 112.784 152.055 112.56 152.759 112.56C153.463 112.56 153.815 112.832 153.815 113.376C153.815 113.824 153.591 114.384 153.143 115.056C152.983 115.28 152.887 115.44 152.855 115.536C152.823 115.632 152.759 115.728 152.663 115.824C152.631 115.856 152.567 115.856 152.471 115.824C152.375 115.792 152.327 115.744 152.327 115.68C152.327 115.296 152.199 115.056 151.943 114.96C151.687 114.832 151.399 114.768 151.079 114.768C150.471 114.768 149.815 114.992 149.111 115.44C148.439 115.856 147.751 116.432 147.047 117.168C147.207 117.968 147.383 118.848 147.575 119.808C147.799 120.736 148.039 121.6 148.295 122.4C148.551 123.2 148.791 123.792 149.015 124.176C149.175 124.432 149.399 124.608 149.687 124.704C149.975 124.768 150.215 124.8 150.407 124.8C150.855 124.8 151.367 124.576 151.943 124.128C152.551 123.648 153.159 123.088 153.767 122.448C154.407 121.776 154.983 121.12 155.495 120.48C156.039 119.84 156.455 119.328 156.743 118.944C156.871 119.104 156.903 119.264 156.839 119.424C156.807 119.616 156.711 119.824 156.551 120.048C156.423 120.24 156.295 120.416 156.167 120.576C155.527 121.376 154.839 122.192 154.103 123.024C153.367 123.824 152.583 124.544 151.751 125.184C151.399 125.472 150.967 125.728 150.455 125.952C149.943 126.144 149.431 126.24 148.919 126.24Z" fill="#6D87A5" fill-opacity="0.6"/>
<path d="M69.4545 102L84.9091 8.90909H96.1818L88.5455 55.0909H89.6364L139.091 8.90909H153.818L107.818 50.9091L138.364 102H124.727L99.6364 58.7273L85.8182 71.8182L80.7273 102H69.4545Z" fill="#0E1A27" fill-opacity="0.54"/>
</svg>
