<svg width="168" height="135" viewBox="0 0 168 135" fill="none" xmlns="http://www.w3.org/2000/svg">
<g filter="url(#filter0_d_9_3)">
<path d="M97.7273 8.90909L82.2727 102H71.3636L32.8182 28.9091H31.9091L19.7273 102H8.45455L23.9091 8.90909H34.8182L73.5455 82.1818H74.4545L86.6364 8.90909H97.7273Z" fill="white" fill-opacity="0.56"/>
<path d="M7.54219 126.096C6.58219 126.096 5.92619 125.872 5.57419 125.424C5.22219 124.944 5.04619 124.368 5.04619 123.696C5.04619 122.8 5.23819 121.84 5.62219 120.816C6.03819 119.792 6.37419 118.992 6.63019 118.416C6.21419 118.864 5.81419 119.296 5.43019 119.712C5.04619 120.128 4.77419 120.432 4.61419 120.624C4.51819 120.752 4.43819 120.816 4.37419 120.816C4.31019 120.816 4.27819 120.736 4.27819 120.576C4.27819 120.32 4.35819 120.08 4.51819 119.856C4.96619 119.28 5.47819 118.672 6.05419 118.032C6.63019 117.392 7.19019 116.72 7.73419 116.016C8.37419 114.832 9.07819 113.456 9.84619 111.888C10.6462 110.288 11.4622 108.656 12.2942 106.992C13.1582 105.296 13.9902 103.744 14.7902 102.336C15.6222 100.896 16.3582 99.744 16.9982 98.88C17.5422 98.656 18.0542 98.368 18.5342 98.016C19.0462 97.664 19.5422 97.344 20.0222 97.056C20.5342 96.736 21.0622 96.576 21.6062 96.576C21.9582 96.576 22.2142 96.672 22.3742 96.864C22.5662 97.056 22.6942 97.28 22.7582 97.536C22.7902 97.632 22.8062 97.808 22.8062 98.064C22.8062 98.8 22.5502 99.696 22.0382 100.752C21.5582 101.808 20.9822 102.848 20.3102 103.872C19.6702 104.864 19.1102 105.68 18.6302 106.32C17.3502 108.112 16.0382 109.744 14.6942 111.216C13.3502 112.656 12.1342 113.872 11.0462 114.864C9.99019 115.824 9.22219 116.528 8.74219 116.976C8.51819 117.392 8.24619 117.952 7.92619 118.656C7.63819 119.328 7.38219 120.048 7.15819 120.816C6.93419 121.552 6.82219 122.24 6.82219 122.88C6.82219 123.424 6.95019 123.888 7.20619 124.272C7.46219 124.624 7.89419 124.8 8.50219 124.8C8.59819 124.8 8.69419 124.8 8.79019 124.8C8.88619 124.8 8.99819 124.784 9.12619 124.752C9.67019 124.656 10.2622 124.352 10.9022 123.84C11.5422 123.328 12.1822 122.736 12.8222 122.064C13.4622 121.392 14.0382 120.752 14.5502 120.144C14.7742 119.888 14.9822 119.648 15.1742 119.424C15.3662 119.168 15.4942 118.992 15.5582 118.896C15.7822 119.12 15.7662 119.408 15.5102 119.76C15.2862 120.08 15.0942 120.352 14.9342 120.576C14.7102 120.864 14.3902 121.264 13.9742 121.776C13.5582 122.256 13.0782 122.784 12.5342 123.36C11.9262 123.968 11.1742 124.576 10.2782 125.184C9.38219 125.792 8.47019 126.096 7.54219 126.096ZM9.55819 115.056C10.5502 114.224 11.7982 113.04 13.3022 111.504C14.8382 109.936 16.3422 108.048 17.8142 105.84C17.9742 105.584 18.2302 105.152 18.5822 104.544C18.9662 103.936 19.3502 103.248 19.7342 102.48C20.1502 101.68 20.5022 100.912 20.7902 100.176C21.0782 99.408 21.2222 98.752 21.2222 98.208C21.2222 97.696 21.0782 97.44 20.7902 97.44C20.4382 97.44 19.9742 97.744 19.3982 98.352C18.7262 99.056 17.9582 100.096 17.0942 101.472C16.2622 102.816 15.3822 104.32 14.4542 105.984C13.5262 107.648 12.6302 109.28 11.7662 110.88C10.9342 112.48 10.1982 113.872 9.55819 115.056ZM17.3758 126.384C16.0638 126.384 15.1518 126.128 14.6398 125.616C14.1278 125.104 13.8718 124.48 13.8718 123.744C13.8718 122.816 14.1118 121.824 14.5918 120.768C15.1038 119.712 15.5838 118.816 16.0318 118.08C16.5438 117.312 17.2318 116.512 18.0958 115.68C18.9598 114.848 19.9038 114.144 20.9278 113.568C21.9518 112.992 22.9438 112.704 23.9038 112.704C24.7358 112.704 25.3118 112.912 25.6318 113.328C25.9518 113.712 26.1118 114.176 26.1118 114.72C26.1118 115.712 25.8078 116.528 25.1998 117.168C24.6238 117.808 23.9038 118.336 23.0398 118.752C22.1758 119.136 21.3438 119.456 20.5438 119.712C20.0638 119.84 19.5038 119.968 18.8638 120.096C18.2238 120.224 17.6158 120.288 17.0398 120.288C16.8158 120.864 16.6398 121.424 16.5118 121.968C16.3838 122.512 16.3198 123.008 16.3198 123.456C16.3198 124 16.4478 124.448 16.7038 124.8C16.9918 125.152 17.4558 125.328 18.0958 125.328C18.3518 125.328 18.6558 125.296 19.0078 125.232C19.3598 125.168 19.7438 125.072 20.1598 124.944C21.1198 124.624 22.0638 124.112 22.9918 123.408C23.9198 122.704 24.7678 121.952 25.5358 121.152C26.3358 120.32 26.9438 119.632 27.3598 119.088C27.4558 119.184 27.5038 119.296 27.5038 119.424C27.5038 119.584 27.3918 119.84 27.1678 120.192C26.5278 121.088 25.6958 122.016 24.6718 122.976C23.6478 123.936 22.5118 124.752 21.2638 125.424C20.0158 126.064 18.7198 126.384 17.3758 126.384ZM17.4238 119.328C17.8398 119.36 18.3038 119.36 18.8158 119.328C19.3598 119.264 19.8878 119.152 20.3998 118.992C21.7118 118.608 22.6558 118 23.2318 117.168C23.8398 116.304 24.1438 115.536 24.1438 114.864C24.1438 114.48 24.0638 114.16 23.9038 113.904C23.7438 113.648 23.4878 113.52 23.1358 113.52C22.2078 113.52 21.3758 113.872 20.6398 114.576C19.9038 115.248 19.2638 116.032 18.7198 116.928C18.1758 117.824 17.7438 118.624 17.4238 119.328ZM33.1209 126.144C32.8009 126.144 32.5289 126.08 32.3049 125.952C32.0809 125.824 31.9689 125.584 31.9689 125.232C31.9689 124.784 32.0809 124.272 32.3049 123.696C32.5289 123.12 32.7849 122.56 33.0729 122.016C33.3609 121.44 33.6169 120.976 33.8409 120.624C32.7209 121.808 31.5529 122.928 30.3369 123.984C29.7289 124.496 29.0569 124.976 28.3209 125.424C27.5849 125.872 26.8009 126.096 25.9689 126.096C25.6489 126.096 25.4249 126 25.2969 125.808C25.1689 125.584 25.1049 125.328 25.1049 125.04C25.1049 124.88 25.1209 124.768 25.1529 124.704C25.3129 123.456 25.7129 122.16 26.3529 120.816C26.9929 119.472 27.7769 118.208 28.7049 117.024C29.6329 115.84 30.5769 114.88 31.5369 114.144C32.6249 113.312 33.8249 112.896 35.1369 112.896H40.6569C40.8169 112.896 40.8969 112.96 40.8969 113.088C40.8969 113.344 40.7529 113.472 40.4649 113.472C40.1449 113.472 39.8249 113.68 39.5049 114.096C39.1849 114.48 38.9449 114.8 38.7849 115.056C38.5609 115.408 38.2089 116 37.7289 116.832C37.2489 117.664 36.7529 118.576 36.2409 119.568C35.7609 120.528 35.3449 121.424 34.9929 122.256C34.6409 123.088 34.4649 123.696 34.4649 124.08C34.4649 124.528 34.6889 124.752 35.1369 124.752C35.6169 124.752 36.1609 124.528 36.7689 124.08C37.3769 123.632 37.9849 123.088 38.5929 122.448C39.2329 121.776 39.8089 121.12 40.3209 120.48C40.8649 119.808 41.2969 119.28 41.6169 118.896C41.8089 119.088 41.7929 119.36 41.5689 119.712C41.3769 120.032 41.2009 120.288 41.0409 120.48C40.4009 121.312 39.6649 122.176 38.8329 123.072C38.0009 123.936 37.0889 124.672 36.0969 125.28C35.1369 125.856 34.1449 126.144 33.1209 126.144ZM27.9369 124.464C28.3209 124.464 28.8489 124.192 29.5209 123.648C30.2249 123.072 30.9769 122.368 31.7769 121.536C32.5769 120.672 33.3289 119.776 34.0329 118.848C34.7369 117.888 35.3129 117.024 35.7609 116.256C36.2409 115.456 36.4809 114.848 36.4809 114.432C36.4809 114.08 36.3689 113.84 36.1449 113.712C35.9529 113.584 35.6969 113.52 35.3769 113.52C34.8649 113.52 34.3049 113.712 33.6969 114.096C33.1209 114.448 32.6569 114.8 32.3049 115.152C31.9209 115.504 31.4569 116.064 30.9129 116.832C30.4009 117.568 29.8889 118.384 29.3769 119.28C28.8649 120.176 28.4329 121.04 28.0809 121.872C27.7289 122.704 27.5529 123.376 27.5529 123.888C27.5529 124.272 27.6809 124.464 27.9369 124.464ZM40.9903 126.672C40.8623 126.672 40.8623 126.544 40.9903 126.288C41.1503 126 41.2943 125.68 41.4223 125.328C41.5823 124.976 41.7423 124.592 41.9023 124.176C42.2223 123.408 42.5743 122.544 42.9583 121.584C43.3423 120.624 43.7103 119.696 44.0623 118.8C44.4143 117.872 44.7183 117.088 44.9743 116.448C45.2623 115.776 45.4543 115.344 45.5503 115.152C45.1023 115.632 44.5583 116.24 43.9183 116.976C43.3103 117.68 42.7343 118.368 42.1903 119.04C41.6463 119.712 41.2303 120.24 40.9423 120.624C40.8463 120.752 40.7663 120.816 40.7023 120.816C40.6383 120.816 40.6063 120.736 40.6063 120.576C40.6063 120.32 40.6863 120.08 40.8463 119.856C41.4543 119.088 42.1263 118.224 42.8623 117.264C43.6303 116.304 44.3183 115.424 44.9263 114.624C45.5343 113.792 45.9183 113.248 46.0783 112.992C46.4303 112.928 46.9423 112.832 47.6143 112.704C48.3183 112.576 48.7983 112.4 49.0543 112.176C49.1503 112.08 49.2463 112.032 49.3423 112.032C49.4063 112.032 49.4383 112.096 49.4383 112.224C49.4703 112.32 49.4383 112.432 49.3423 112.56C49.1503 112.752 48.8623 113.168 48.4783 113.808C48.1263 114.448 47.7263 115.184 47.2783 116.016C46.8303 116.848 46.3983 117.648 45.9823 118.416C46.3023 117.936 46.7183 117.376 47.2303 116.736C47.7743 116.064 48.3663 115.424 49.0063 114.816C49.6463 114.176 50.2863 113.648 50.9263 113.232C51.5983 112.816 52.2223 112.608 52.7983 112.608C53.2143 112.608 53.5663 112.704 53.8543 112.896C54.1423 113.056 54.3663 113.36 54.5263 113.808C54.6223 114.032 54.6703 114.288 54.6703 114.576C54.6703 115.12 54.5263 115.648 54.2383 116.16C53.9823 116.64 53.7903 117.008 53.6623 117.264C53.6303 117.36 53.5183 117.456 53.3263 117.552C53.1343 117.616 53.0543 117.584 53.0863 117.456C53.1183 117.296 53.1343 117.136 53.1343 116.976C53.1663 116.816 53.1823 116.64 53.1823 116.448C53.1823 115.904 53.0703 115.408 52.8463 114.96C52.6543 114.512 52.2863 114.288 51.7423 114.288C51.2303 114.288 50.6063 114.608 49.8703 115.248C49.1343 115.888 48.3983 116.624 47.6623 117.456C46.7343 118.544 45.9983 119.584 45.4543 120.576C44.9103 121.536 44.4623 122.48 44.1103 123.408C43.9183 123.92 43.7263 124.432 43.5343 124.944C43.3423 125.424 43.1983 125.808 43.1023 126.096C42.6863 126.128 42.2703 126.224 41.8543 126.384C41.4383 126.576 41.1503 126.672 40.9903 126.672ZM54.0684 126.72C53.9404 126.72 53.9404 126.576 54.0684 126.288C54.2284 126 54.3724 125.68 54.5004 125.328C54.6604 124.976 54.8204 124.592 54.9804 124.176C55.3004 123.408 55.6524 122.544 56.0364 121.584C56.4204 120.624 56.7884 119.696 57.1404 118.8C57.4924 117.872 57.7964 117.088 58.0524 116.448C58.3404 115.776 58.5324 115.344 58.6284 115.152C58.1804 115.632 57.6364 116.24 56.9964 116.976C56.3884 117.68 55.8124 118.368 55.2684 119.04C54.7244 119.712 54.3084 120.24 54.0204 120.624C53.9244 120.752 53.8444 120.816 53.7804 120.816C53.7164 120.816 53.6844 120.736 53.6844 120.576C53.6844 120.32 53.7644 120.08 53.9244 119.856C54.5324 119.088 55.2044 118.224 55.9404 117.264C56.7084 116.304 57.3964 115.424 58.0044 114.624C58.6124 113.792 58.9964 113.248 59.1564 112.992C59.5084 112.928 60.0204 112.832 60.6924 112.704C61.3964 112.576 61.8764 112.4 62.1324 112.176C62.2284 112.08 62.3244 112.032 62.4204 112.032C62.4844 112.032 62.5164 112.096 62.5164 112.224C62.5484 112.32 62.5164 112.432 62.4204 112.56C62.2284 112.784 61.8924 113.312 61.4124 114.144C60.9644 114.944 60.4684 115.84 59.9244 116.832C59.4124 117.824 58.9324 118.72 58.4844 119.52C58.8684 119.008 59.2844 118.512 59.7324 118.032C60.1804 117.552 60.6124 117.088 61.0284 116.64C61.4124 116.256 61.9404 115.776 62.6124 115.2C63.2844 114.624 63.9884 114.096 64.7244 113.616C65.4604 113.136 66.1004 112.864 66.6444 112.8C66.7724 112.768 66.8844 112.752 66.9804 112.752C67.1084 112.752 67.2044 112.752 67.2684 112.752C67.9724 112.752 68.3244 113.008 68.3244 113.52C68.3244 113.904 68.1164 114.416 67.7004 115.056C67.4764 115.408 67.1244 116 66.6444 116.832C66.1964 117.632 65.7324 118.512 65.2524 119.472C64.8044 120.4 64.4044 121.28 64.0524 122.112C63.7324 122.912 63.5724 123.504 63.5724 123.888C63.5724 124.336 63.7964 124.56 64.2444 124.56C64.7884 124.56 65.3804 124.288 66.0204 123.744C66.6924 123.2 67.4124 122.512 68.1804 121.68C68.9484 120.816 69.7164 119.904 70.4844 118.944C70.5484 119.008 70.5804 119.12 70.5804 119.28C70.5804 119.504 70.5004 119.728 70.3404 119.952C70.2124 120.144 70.0844 120.32 69.9564 120.48C69.6364 120.896 69.2044 121.424 68.6604 122.064C68.1484 122.672 67.6204 123.28 67.0764 123.888C66.5324 124.464 66.0364 124.928 65.5884 125.28C65.2684 125.504 64.8524 125.744 64.3404 126C63.8284 126.256 63.3164 126.384 62.8044 126.384C62.2284 126.384 61.8284 126.24 61.6044 125.952C61.3804 125.632 61.2684 125.248 61.2684 124.8C61.2684 124.288 61.3644 123.744 61.5564 123.168C61.7484 122.592 61.9564 122.048 62.1804 121.536C62.4364 120.992 62.6284 120.592 62.7564 120.336C63.3324 119.216 63.8604 118.16 64.3404 117.168C64.8204 116.176 65.1564 115.472 65.3484 115.056C65.4444 114.864 65.4924 114.704 65.4924 114.576C65.4924 114.352 65.3164 114.336 64.9644 114.528C64.6124 114.72 64.1804 115.008 63.6684 115.392C63.1884 115.776 62.7404 116.16 62.3244 116.544C61.9084 116.896 61.6364 117.136 61.5084 117.264C60.3244 118.512 59.2844 119.904 58.3884 121.44C57.5244 122.944 56.7884 124.496 56.1804 126.096C55.7644 126.128 55.3484 126.24 54.9324 126.432C54.5164 126.624 54.2284 126.72 54.0684 126.72ZM73.5602 126.288C73.1122 126.288 72.7282 126.128 72.4082 125.808C72.0882 125.488 71.9282 124.928 71.9282 124.128C71.9282 123.424 71.9762 122.592 72.0722 121.632C72.2002 120.672 72.3762 119.696 72.6002 118.704C72.8242 117.68 73.0802 116.784 73.3682 116.016C72.8242 116.816 72.2162 117.648 71.5442 118.512C70.8722 119.344 70.3122 120.048 69.8642 120.624C69.7682 120.752 69.6882 120.816 69.6242 120.816C69.5602 120.816 69.5282 120.736 69.5282 120.576C69.5282 120.32 69.6082 120.08 69.7682 119.856C70.4402 118.928 71.1922 117.872 72.0242 116.688C72.8882 115.504 73.6242 114.432 74.2322 113.472C74.5842 113.408 75.0002 113.312 75.4802 113.184C75.9922 113.056 76.3602 112.88 76.5842 112.656C76.7442 112.56 76.8402 112.512 76.8722 112.512C76.9682 112.512 77.0162 112.576 77.0162 112.704C77.0162 112.8 76.9682 112.912 76.8722 113.04C76.5842 113.456 76.2642 114.112 75.9122 115.008C75.5602 115.872 75.2242 116.848 74.9042 117.936C74.5842 118.992 74.3122 120.032 74.0882 121.056C73.8962 122.08 73.8002 122.928 73.8002 123.6C73.8002 124.112 73.8802 124.464 74.0402 124.656C74.2322 124.848 74.4402 124.944 74.6642 124.944C75.1122 124.944 75.5762 124.736 76.0562 124.32C76.5682 123.904 77.0642 123.392 77.5442 122.784C78.0562 122.176 78.5042 121.584 78.8882 121.008C79.2722 120.432 79.5602 119.984 79.7522 119.664C80.3922 118.64 81.0002 117.536 81.5762 116.352C82.1842 115.136 82.6962 114.176 83.1122 113.472C83.4642 113.408 83.8802 113.312 84.3602 113.184C84.8722 113.056 85.2562 112.88 85.5122 112.656C85.6082 112.56 85.6882 112.512 85.7522 112.512C85.8482 112.512 85.8962 112.576 85.8962 112.704C85.9282 112.8 85.8962 112.912 85.8002 113.04C85.5122 113.456 85.2082 114.096 84.8882 114.96C84.5682 115.824 84.2482 116.784 83.9282 117.84C83.6402 118.864 83.4002 119.888 83.2082 120.912C83.0162 121.904 82.9202 122.752 82.9202 123.456C82.9202 124.416 83.2722 124.896 83.9762 124.896C84.4562 124.896 84.9842 124.72 85.5602 124.368C86.1682 124.016 86.6642 123.648 87.0482 123.264C88.1362 122.144 89.0482 121.04 89.7842 119.952C90.5202 118.864 91.1442 117.616 91.6562 116.208C91.8482 115.728 91.9762 115.312 92.0402 114.96C92.1042 114.576 92.1362 114.224 92.1362 113.904C92.1362 113.456 92.0562 113.104 91.8962 112.848C91.7682 112.56 91.6242 112.4 91.4642 112.368C91.3042 112.304 91.2242 112.224 91.2242 112.128C91.2242 112.064 91.3042 112 91.4642 111.936C91.6242 111.84 91.8002 111.808 91.9922 111.84C92.5042 111.968 92.9362 112.208 93.2882 112.56C93.6722 112.88 93.8642 113.36 93.8642 114C93.8642 114.512 93.7522 115.056 93.5282 115.632C93.0802 116.816 92.4242 118.048 91.5602 119.328C90.7282 120.576 89.7842 121.744 88.7282 122.832C87.6722 123.92 86.5682 124.8 85.4162 125.472C85.0002 125.696 84.5682 125.888 84.1202 126.048C83.6722 126.208 83.2402 126.288 82.8242 126.288C82.3122 126.288 81.8642 126.128 81.4802 125.808C81.1282 125.488 80.9522 124.928 80.9522 124.128C80.9522 123.296 81.0322 122.304 81.1922 121.152C81.3842 120 81.6242 118.88 81.9122 117.792C81.6882 118.144 81.4642 118.528 81.2402 118.944C81.0482 119.328 80.8242 119.728 80.5682 120.144C79.7682 121.296 78.9362 122.384 78.0722 123.408C77.2402 124.432 76.5202 125.12 75.9122 125.472C75.5282 125.696 75.1282 125.888 74.7122 126.048C74.2962 126.208 73.9122 126.288 73.5602 126.288ZM103.608 107.664C103.16 107.664 102.84 107.52 102.648 107.232C102.52 107.072 102.456 106.864 102.456 106.608C102.456 106.096 102.696 105.68 103.176 105.36C103.528 105.168 103.848 105.072 104.136 105.072C104.616 105.072 104.952 105.216 105.144 105.504C105.272 105.664 105.336 105.872 105.336 106.128C105.336 106.64 105.08 107.056 104.568 107.376C104.28 107.568 103.96 107.664 103.608 107.664ZM95.2562 126.144C94.9362 126.144 94.6642 126.08 94.4402 125.952C94.2482 125.824 94.1522 125.584 94.1522 125.232C94.1522 124.784 94.2642 124.256 94.4882 123.648C94.7442 123.04 95.0162 122.432 95.3042 121.824C95.6242 121.216 95.8642 120.72 96.0242 120.336C96.2482 119.888 96.5202 119.312 96.8402 118.608C97.1922 117.872 97.5122 117.184 97.8002 116.544C98.1202 115.872 98.3442 115.408 98.4722 115.152C98.0242 115.632 97.4802 116.24 96.8402 116.976C96.2322 117.68 95.6562 118.368 95.1122 119.04C94.5682 119.712 94.1522 120.24 93.8642 120.624C93.7682 120.752 93.6882 120.816 93.6242 120.816C93.5602 120.816 93.5282 120.736 93.5282 120.576C93.5282 120.32 93.6082 120.08 93.7682 119.856C94.3762 119.088 95.0482 118.224 95.7842 117.264C96.5522 116.304 97.2402 115.424 97.8482 114.624C98.4562 113.792 98.8402 113.248 99.0002 112.992C99.3522 112.928 99.8642 112.832 100.536 112.704C101.24 112.576 101.72 112.4 101.976 112.176C102.072 112.08 102.168 112.032 102.264 112.032C102.328 112.032 102.36 112.096 102.36 112.224C102.392 112.32 102.36 112.432 102.264 112.56C102.072 112.784 101.736 113.328 101.256 114.192C100.776 115.056 100.264 116.016 99.7202 117.072C99.2082 118.096 98.7282 119.024 98.2802 119.856C97.8322 120.72 97.4482 121.552 97.1282 122.352C96.8082 123.152 96.6482 123.728 96.6482 124.08C96.6482 124.528 96.8722 124.752 97.3202 124.752C97.7362 124.752 98.2642 124.496 98.9042 123.984C99.5762 123.472 100.248 122.864 100.92 122.16C101.592 121.424 102.184 120.752 102.696 120.144C102.856 119.952 103.048 119.728 103.272 119.472C103.528 119.184 103.688 119.008 103.752 118.944C103.816 119.008 103.848 119.12 103.848 119.28C103.816 119.504 103.736 119.728 103.608 119.952C103.48 120.144 103.352 120.32 103.224 120.48C102.552 121.312 101.816 122.176 101.016 123.072C100.216 123.936 99.3362 124.672 98.3762 125.28C97.4162 125.856 96.3762 126.144 95.2562 126.144ZM104.779 126.144C104.459 126.144 104.187 126.08 103.963 125.952C103.739 125.824 103.627 125.584 103.627 125.232C103.627 124.784 103.739 124.256 103.963 123.648C104.219 123.04 104.491 122.432 104.779 121.824C105.067 121.216 105.307 120.72 105.499 120.336C105.659 120.048 105.867 119.6 106.123 118.992C106.411 118.352 106.699 117.696 106.987 117.024C107.307 116.32 107.563 115.728 107.755 115.248C107.979 114.768 108.091 114.528 108.091 114.528C107.803 114.848 107.419 115.296 106.939 115.872C106.491 116.448 105.995 117.056 105.451 117.696C104.939 118.304 104.459 118.88 104.011 119.424C103.595 119.968 103.291 120.368 103.099 120.624C103.003 120.752 102.923 120.816 102.859 120.816C102.795 120.816 102.763 120.736 102.763 120.576C102.763 120.32 102.843 120.08 103.003 119.856C103.387 119.376 103.851 118.8 104.395 118.128C104.939 117.424 105.483 116.72 106.027 116.016C106.603 115.312 107.099 114.688 107.515 114.144C107.259 114.144 106.923 114.16 106.507 114.192C106.123 114.224 105.771 114.272 105.451 114.336C105.131 114.368 104.955 114.384 104.923 114.384C104.763 114.384 104.779 114.256 104.971 114C105.163 113.744 105.419 113.488 105.739 113.232C106.059 112.976 106.299 112.848 106.459 112.848C106.491 112.848 106.747 112.864 107.227 112.896C107.707 112.896 108.059 112.896 108.283 112.896C108.923 112.032 109.547 111.04 110.155 109.92C110.795 108.8 111.419 107.568 112.027 106.224C112.283 106.192 112.715 106.016 113.323 105.696C113.963 105.344 114.459 104.992 114.811 104.64C114.971 104.48 115.099 104.4 115.195 104.4C115.387 104.4 115.387 104.528 115.195 104.784C114.971 105.04 114.587 105.584 114.043 106.416C113.499 107.216 112.891 108.192 112.219 109.344C111.547 110.464 110.907 111.648 110.299 112.896H114.187C114.539 112.896 114.715 112.944 114.715 113.04C114.715 113.168 114.475 113.296 113.995 113.424C113.451 113.584 112.875 113.68 112.267 113.712C111.691 113.744 111.147 113.808 110.635 113.904C110.155 114 109.803 114.208 109.579 114.528C109.387 114.752 109.115 115.232 108.763 115.968C108.411 116.704 108.027 117.552 107.611 118.512C107.227 119.44 106.891 120.384 106.603 121.344C106.315 122.272 106.139 123.056 106.075 123.696V123.888C106.075 124.144 106.155 124.352 106.315 124.512C106.475 124.672 106.635 124.752 106.795 124.752C107.211 124.752 107.739 124.496 108.379 123.984C109.051 123.472 109.739 122.864 110.443 122.16C111.147 121.424 111.755 120.752 112.267 120.144C112.491 119.888 112.683 119.648 112.843 119.424C113.035 119.2 113.147 119.056 113.179 118.992C113.243 119.12 113.275 119.216 113.275 119.28C113.275 119.472 113.211 119.68 113.083 119.904C112.987 120.128 112.875 120.32 112.747 120.48C112.139 121.28 111.403 122.128 110.539 123.024C109.675 123.888 108.747 124.624 107.755 125.232C106.795 125.84 105.803 126.144 104.779 126.144ZM119.478 126.288C118.998 126.288 118.566 126.192 118.182 126C117.83 125.808 117.654 125.456 117.654 124.944C117.654 124.656 117.718 124.336 117.846 123.984C118.134 123.248 118.518 122.352 118.998 121.296C119.51 120.24 120.022 119.216 120.534 118.224C121.046 117.2 121.446 116.368 121.734 115.728C121.926 115.344 122.022 115.072 122.022 114.912C122.022 114.624 121.862 114.56 121.542 114.72C121.222 114.88 120.87 115.104 120.486 115.392C120.102 115.68 119.814 115.904 119.622 116.064C118.79 116.832 117.91 117.744 116.982 118.8C116.086 119.824 115.254 120.912 114.486 122.064C113.75 123.184 113.174 124.304 112.758 125.424C112.726 125.616 112.518 125.776 112.134 125.904C111.75 126.032 111.398 126.096 111.078 126.096C110.566 126.096 110.374 125.936 110.502 125.616C111.238 123.952 111.99 122.112 112.758 120.096C113.558 118.08 114.454 116.016 115.446 113.904C116.182 112.304 116.998 110.656 117.894 108.96C118.822 107.264 119.846 105.648 120.966 104.112C122.086 102.544 123.318 101.168 124.662 99.984C125.846 98.96 127.142 98.128 128.55 97.488C129.99 96.816 131.542 96.48 133.206 96.48C133.942 96.48 134.582 96.64 135.126 96.96C135.67 97.248 135.974 97.776 136.038 98.544V98.976C136.038 99.424 135.99 99.872 135.894 100.32C135.862 100.448 135.734 100.512 135.51 100.512C135.414 100.512 135.382 100.496 135.414 100.464C135.542 99.632 135.318 99.04 134.742 98.688C134.198 98.336 133.494 98.16 132.63 98.16C131.062 98.16 129.622 98.448 128.31 99.024C126.998 99.6 125.782 100.368 124.662 101.328C122.934 102.832 121.43 104.752 120.15 107.088C118.87 109.424 117.766 111.808 116.838 114.24C116.39 115.424 115.942 116.608 115.494 117.792C115.078 118.976 114.678 120.08 114.294 121.104C115.734 119.184 117.11 117.536 118.422 116.16C119.766 114.784 120.934 113.808 121.926 113.232C122.726 112.784 123.446 112.56 124.086 112.56C124.694 112.56 124.998 112.816 124.998 113.328C124.998 113.776 124.774 114.352 124.326 115.056C124.102 115.408 123.75 116 123.27 116.832C122.822 117.664 122.342 118.576 121.83 119.568C121.35 120.528 120.934 121.424 120.582 122.256C120.23 123.088 120.054 123.696 120.054 124.08C120.054 124.592 120.278 124.848 120.726 124.848C120.982 124.848 121.27 124.768 121.59 124.608C121.942 124.448 122.198 124.304 122.358 124.176C123.222 123.536 124.07 122.752 124.902 121.824C125.734 120.896 126.438 120.08 127.014 119.376C127.046 119.344 127.062 119.392 127.062 119.52C127.062 119.648 127.03 119.84 126.966 120.096C126.934 120.32 126.838 120.512 126.678 120.672C126.326 121.152 125.958 121.616 125.574 122.064C125.222 122.48 124.87 122.896 124.518 123.312C123.91 124.016 123.174 124.688 122.31 125.328C121.478 125.968 120.534 126.288 119.478 126.288ZM126.772 126.72C126.644 126.72 126.644 126.576 126.772 126.288C126.932 126 127.076 125.68 127.204 125.328C127.364 124.976 127.524 124.592 127.684 124.176C128.004 123.408 128.356 122.544 128.74 121.584C129.124 120.624 129.492 119.696 129.844 118.8C130.196 117.872 130.5 117.088 130.756 116.448C131.044 115.776 131.236 115.344 131.332 115.152C130.884 115.632 130.34 116.24 129.7 116.976C129.092 117.68 128.516 118.368 127.972 119.04C127.428 119.712 127.012 120.24 126.724 120.624C126.628 120.752 126.548 120.816 126.484 120.816C126.42 120.816 126.388 120.736 126.388 120.576C126.388 120.32 126.468 120.08 126.628 119.856C127.236 119.088 127.908 118.224 128.644 117.264C129.412 116.304 130.1 115.424 130.708 114.624C131.316 113.792 131.7 113.248 131.86 112.992C132.212 112.928 132.724 112.832 133.396 112.704C134.1 112.576 134.58 112.4 134.836 112.176C134.932 112.08 135.028 112.032 135.124 112.032C135.188 112.032 135.22 112.096 135.22 112.224C135.252 112.32 135.22 112.432 135.124 112.56C134.932 112.784 134.596 113.312 134.116 114.144C133.668 114.944 133.172 115.84 132.628 116.832C132.116 117.824 131.636 118.72 131.188 119.52C131.572 119.008 131.988 118.512 132.436 118.032C132.884 117.552 133.316 117.088 133.732 116.64C134.116 116.256 134.644 115.776 135.316 115.2C135.988 114.624 136.692 114.096 137.428 113.616C138.164 113.136 138.804 112.864 139.348 112.8C139.476 112.768 139.588 112.752 139.684 112.752C139.812 112.752 139.908 112.752 139.972 112.752C140.676 112.752 141.028 113.008 141.028 113.52C141.028 113.904 140.82 114.416 140.404 115.056C140.18 115.408 139.828 116 139.348 116.832C138.9 117.632 138.436 118.512 137.956 119.472C137.508 120.4 137.108 121.28 136.756 122.112C136.436 122.912 136.276 123.504 136.276 123.888C136.276 124.336 136.5 124.56 136.948 124.56C137.492 124.56 138.084 124.288 138.724 123.744C139.396 123.2 140.116 122.512 140.884 121.68C141.652 120.816 142.42 119.904 143.188 118.944C143.252 119.008 143.284 119.12 143.284 119.28C143.284 119.504 143.204 119.728 143.044 119.952C142.916 120.144 142.788 120.32 142.66 120.48C142.34 120.896 141.908 121.424 141.364 122.064C140.852 122.672 140.324 123.28 139.78 123.888C139.236 124.464 138.74 124.928 138.292 125.28C137.972 125.504 137.556 125.744 137.044 126C136.532 126.256 136.02 126.384 135.508 126.384C134.932 126.384 134.532 126.24 134.308 125.952C134.084 125.632 133.972 125.248 133.972 124.8C133.972 124.288 134.068 123.744 134.26 123.168C134.452 122.592 134.66 122.048 134.884 121.536C135.14 120.992 135.332 120.592 135.46 120.336C136.036 119.216 136.564 118.16 137.044 117.168C137.524 116.176 137.86 115.472 138.052 115.056C138.148 114.864 138.196 114.704 138.196 114.576C138.196 114.352 138.02 114.336 137.668 114.528C137.316 114.72 136.884 115.008 136.372 115.392C135.892 115.776 135.444 116.16 135.028 116.544C134.612 116.896 134.34 117.136 134.212 117.264C133.028 118.512 131.988 119.904 131.092 121.44C130.228 122.944 129.492 124.496 128.884 126.096C128.468 126.128 128.052 126.24 127.636 126.432C127.22 126.624 126.932 126.72 126.772 126.72ZM150.919 126.24C150.119 126.24 149.511 125.968 149.095 125.424C148.839 125.04 148.583 124.464 148.327 123.696C148.071 122.928 147.847 122.128 147.655 121.296C147.463 120.464 147.303 119.792 147.175 119.28C146.279 120.432 145.479 121.584 144.775 122.736C144.103 123.888 143.655 124.784 143.431 125.424C143.367 125.616 143.143 125.776 142.759 125.904C142.407 126.032 142.055 126.096 141.703 126.096C141.191 126.096 140.999 125.936 141.127 125.616C142.119 123.408 143.063 121.28 143.959 119.232C144.855 117.184 145.799 115.12 146.791 113.04C147.815 110.96 148.967 108.8 150.247 106.56C151.143 104.928 152.215 103.36 153.463 101.856C154.743 100.32 156.103 99.072 157.543 98.112C158.983 97.12 160.439 96.624 161.911 96.624C162.391 96.624 162.839 96.752 163.255 97.008C163.671 97.264 163.879 97.664 163.879 98.208V99.6C163.879 99.728 163.783 99.792 163.591 99.792C163.495 99.792 163.447 99.76 163.447 99.696C163.447 99.184 163.223 98.848 162.775 98.688C162.327 98.496 161.895 98.4 161.479 98.4C160.359 98.4 159.223 98.624 158.071 99.072C156.791 99.584 155.719 100.352 154.855 101.376C153.991 102.4 153.191 103.488 152.455 104.64C151.495 106.112 150.551 107.84 149.623 109.824C148.695 111.776 147.831 113.744 147.031 115.728C146.263 117.712 145.575 119.504 144.967 121.104C145.319 120.656 145.671 120.208 146.023 119.76C146.375 119.312 146.711 118.896 147.031 118.512C147.031 118.448 147.015 118.384 146.983 118.32C146.983 118.256 146.983 118.192 146.983 118.128C146.983 117.904 147.031 117.712 147.127 117.552C147.223 117.392 147.351 117.2 147.511 116.976C147.735 116.656 147.943 116.416 148.135 116.256C148.327 116.064 148.535 115.824 148.759 115.536L148.903 116.352C150.311 114.912 151.543 113.872 152.599 113.232C153.335 112.784 154.055 112.56 154.759 112.56C155.463 112.56 155.815 112.832 155.815 113.376C155.815 113.824 155.591 114.384 155.143 115.056C154.983 115.28 154.887 115.44 154.855 115.536C154.823 115.632 154.759 115.728 154.663 115.824C154.631 115.856 154.567 115.856 154.471 115.824C154.375 115.792 154.327 115.744 154.327 115.68C154.327 115.296 154.199 115.056 153.943 114.96C153.687 114.832 153.399 114.768 153.079 114.768C152.471 114.768 151.815 114.992 151.111 115.44C150.439 115.856 149.751 116.432 149.047 117.168C149.207 117.968 149.383 118.848 149.575 119.808C149.799 120.736 150.039 121.6 150.295 122.4C150.551 123.2 150.791 123.792 151.015 124.176C151.175 124.432 151.399 124.608 151.687 124.704C151.975 124.768 152.215 124.8 152.407 124.8C152.855 124.8 153.367 124.576 153.943 124.128C154.551 123.648 155.159 123.088 155.767 122.448C156.407 121.776 156.983 121.12 157.495 120.48C158.039 119.84 158.455 119.328 158.743 118.944C158.871 119.104 158.903 119.264 158.839 119.424C158.807 119.616 158.711 119.824 158.551 120.048C158.423 120.24 158.295 120.416 158.167 120.576C157.527 121.376 156.839 122.192 156.103 123.024C155.367 123.824 154.583 124.544 153.751 125.184C153.399 125.472 152.967 125.728 152.455 125.952C151.943 126.144 151.431 126.24 150.919 126.24Z" fill="white" fill-opacity="0.56"/>
<path d="M71.4545 102L86.9091 8.90909H98.1818L90.5455 55.0909H91.6364L141.091 8.90909H155.818L109.818 50.9091L140.364 102H126.727L101.636 58.7273L87.8182 71.8182L82.7273 102H71.4545Z" fill="white" fill-opacity="0.56"/>
</g>
<defs>
<filter id="filter0_d_9_3" x="0.278187" y="8.90906" width="167.601" height="125.811" filterUnits="userSpaceOnUse" color-interpolation-filters="sRGB">
<feFlood flood-opacity="0" result="BackgroundImageFix"/>
<feColorMatrix in="SourceAlpha" type="matrix" values="0 0 0 0 0 0 0 0 0 0 0 0 0 0 0 0 0 0 127 0" result="hardAlpha"/>
<feOffset dy="4"/>
<feGaussianBlur stdDeviation="2"/>
<feComposite in2="hardAlpha" operator="out"/>
<feColorMatrix type="matrix" values="0 0 0 0 0 0 0 0 0 0 0 0 0 0 0 0 0 0 0.25 0"/>
<feBlend mode="normal" in2="BackgroundImageFix" result="effect1_dropShadow_9_3"/>
<feBlend mode="normal" in="SourceGraphic" in2="effect1_dropShadow_9_3" result="shape"/>
</filter>
</defs>
</svg>
